# xmcd
#
# Track frame offsets:
#       150
#       18266
#       35094
#       50619
#       65502
#       82607
#       99240
#       115299
#       133410
#       153590
#       168572
#       183908
#       198186
#       216907
#       235155
#       251133
#       263556
#       284608
#       299215
#       316118
#       334059
#
# Disc length: 4671 seconds
#
# Revision: 1
# Processed by: cddbd v1.5.2PL0 Copyright (c) Steve Scherf et al.
# Submitted via: WaveLab 4.01
#
DISCID=3a123d15
DTITLE=Promo Only Canada - Mainstream Radio January 2007
DYEAR=2007
DGENRE=Top 40
TTITLE0=Avril Lavigne - Keep Holding On
TTITLE1=Nelly Furtado - Say It Right
TTITLE2=DJ Champion - No Heaven
TTITLE3=Keshia Chante - 2U
TTITLE4=Rob Thomas - Streetcorner Symphony
TTITLE5=Pussycat Dolls ft. Timbaland - Wait A Minute
TTITLE6=Sean Paul and Rihanna - Wait A Minute
TTITLE7=Stone Sour - Through Glass
TTITLE8=Bow Wow ft. Christ Brown and Johnta Austin - Shortie Like Mine
TTITLE9=Cartel - Honestly
TTITLE10=Brooke Hogan ft. Paul Wall - About Us
TTITLE11=Rod Stewart - Have You Ever Seen The Rain
TTITLE12=Diddy and Christina Aguilera - Tell Me
TTITLE13=JoJo - How To Touch A Girl
TTITLE14=Rascal Flatts - What Hurts The Most
TTITLE15=Vanessa Hudgens - Come Back To Me
TTITLE16=Red Hot Chili Peppers - Snow (Hey Oh - Radio Edit)
TTITLE17=Gia Farrell - Hit Me Up
TTITLE18=Shakira - Illegal
TTITLE19=Rex Goudie - You Got To Me
TTITLE20=Chicane ft. Tom Jones - Stoned In Love
EXTD=
EXTT0=
EXTT1=
EXTT2=
EXTT3=
EXTT4=
EXTT5=
EXTT6=
EXTT7=
EXTT8=
EXTT9=
EXTT10=
EXTT11=
EXTT12=
EXTT13=
EXTT14=
EXTT15=
EXTT16=
EXTT17=
EXTT18=
EXTT19=
EXTT20=
PLAYORDER=
